# xmcd
#
# Track frame offsets: 
#        187
#        24015
#        40602
#        61417
#        81542
#        98712
#        114680
#        130355
#        149142
#        167337
#        175582
#        193595
#        206892
#        229485
#        250062
#        271362
#
# Disc length: 3847 seconds
#
# Revision: 2
# Processed by: cddbd v1.5.2PL0 Copyright (c) Steve Scherf et al.
# Submitted via: ExactAudioCopy v1.3
#
DISCID=e30f0510
DTITLE=Jay-Z - Reasonable Doubt
DYEAR=1996
DGENRE=Hip-Hop
TTITLE0=Can't Knock The Hustle (feat. Mary J. Blige)
TTITLE1=Politics As Usual
TTITLE2=Brooklyn's Finest (feat. The Notorious B.I.G.)
TTITLE3=Dead Presidents II
TTITLE4=Feelin' It (feat. Mecca)
TTITLE5=D'evils
TTITLE6=22 Two's
TTITLE7=Can I Live
TTITLE8=Ain't No Nigga (feat. Foxy Brown)
TTITLE9=Friend Or Foe
TTITLE10=Coming Of Age (feat. Memphis Bleek)
TTITLE11=Cashmere Thoughts
TTITLE12=Bring It On (feat. Big Jaz and Sauce Money)
TTITLE13=Regrets
TTITLE14=Can't Knock The Hustle (Fool's Paradise Remix) (feat. Meli'sa
TTITLE14=Morgan) (Bonus Track)
TTITLE15=Dead or Alive Pt. 1 (feat. Sauce Money) (Bonus Track)
EXTD=YEAR: 1997
EXTT0=
EXTT1=
EXTT2=
EXTT3=
EXTT4=
EXTT5=
EXTT6=
EXTT7=
EXTT8=
EXTT9=
EXTT10=
EXTT11=
EXTT12=
EXTT13=
EXTT14=
EXTT15=
PLAYORDER=
